<?xml version="1.0" encoding="UTF-8"?>
<svg width="24px" height="24px" viewBox="0 0 24 24" version="1.1" xmlns="http://www.w3.org/2000/svg" xmlns:xlink="http://www.w3.org/1999/xlink">
    <!-- Generator: Sketch 63.1 (92452) - https://sketch.com -->
    <title>pin</title>
    <desc>Created with Sketch.</desc>
    <g id="Page-1" stroke="none" stroke-width="1" fill="none" fill-rule="evenodd">
        <path d="M0.146,23.854 C0.341,24.049 0.658,24.049 0.853,23.854 L9.5,15.207 L13.646,19.353 C13.744,19.451 13.872,19.5 14,19.5 C14.128,19.5 14.256,19.451 14.354,19.354 L15.854,17.854 C15.947,17.761 16,17.633 16,17.5 L16,13.707 L20.5,9.207 L21.146,9.853 C21.341,10.048 21.658,10.048 21.853,9.853 L23.853,7.853 C24.048,7.659 24.048,7.341 23.853,7.145 L16.853,0.145 C16.658,-0.049 16.341,-0.049 16.146,0.145 L14.146,2.145 C13.951,2.341 13.951,2.659 14.146,2.853 L14.793,3.5 L10.293,8 L6.5,8 C6.368,8 6.24,8.053 6.146,8.146 L4.646,9.646 C4.451,9.842 4.451,10.16 4.646,10.354 L8.793,14.5 L0.147,23.146 C-0.049,23.342 -0.049,23.658 0.146,23.854 Z" id="pin" fill="#000000" fill-rule="nonzero"></path>
    </g>
</svg>